<svg width="433" height="137" viewBox="0 0 433 137" fill="none" xmlns="http://www.w3.org/2000/svg">
<path d="M117.149 35.864C117.165 35.5079 117.082 35.1545 116.91 34.8422C116.738 34.5299 116.484 34.2708 116.175 34.0929L60.1922 1.85963C59.9275 1.70962 59.6286 1.63033 59.3244 1.62939V1.62939C59.0201 1.63033 58.7213 1.70962 58.4566 1.85963V1.85963L2.27859 34.1815C1.96976 34.3593 1.71564 34.6185 1.54389 34.9308C1.37214 35.243 1.28934 35.5965 1.3045 35.9525V100.596C1.30236 100.906 1.38175 101.212 1.53474 101.482C1.696 101.74 1.91406 101.958 2.17232 102.119C2.17232 102.119 2.17232 102.119 2.17232 102.119L58.1555 134.423C58.4477 134.596 58.7811 134.688 59.1207 134.688C59.4603 134.688 59.7937 134.596 60.0859 134.423L116.051 102.119C116.331 101.95 116.562 101.712 116.724 101.429V101.429C116.874 101.164 116.954 100.865 116.955 100.561L117.149 35.864ZM59.2181 27.3275L92.6557 46.632L77.8851 55.1685L60.1745 44.9495H59.962C59.8387 44.8898 59.7075 44.848 59.5723 44.8255H59.2181H58.8462C58.7167 44.848 58.5913 44.8897 58.4743 44.9495H58.244L40.5334 55.1685L25.7628 46.632L59.2181 27.3275ZM59.2181 87.5434L42.517 77.9266V58.5335L59.2181 48.8812L75.9369 58.5335V77.9266L59.2181 87.5434ZM61.1663 90.9085L78.8769 80.6894C78.8769 80.6894 78.9831 80.5832 79.054 80.5301C79.1624 80.451 79.2631 80.3621 79.355 80.2644C79.43 80.1709 79.4953 80.07 79.5499 79.9633C79.6169 79.8646 79.6705 79.7574 79.7093 79.6445C79.7249 79.5092 79.7249 79.3725 79.7093 79.2372C79.7193 79.1608 79.7193 79.0834 79.7093 79.0069V58.5335L94.4799 49.997V88.5529L61.0423 107.857L61.1663 90.9085ZM5.18312 36.9797L57.2877 6.87173V23.927L20.9278 44.9495V45.038C20.8529 45.0854 20.7818 45.1387 20.7153 45.1974C20.6477 45.2472 20.588 45.3069 20.5382 45.3745C20.4809 45.4421 20.4276 45.5131 20.3788 45.5871V45.6756C20.3788 45.6756 20.3788 45.6756 20.3788 45.7819C20.3788 45.8881 20.3788 45.9236 20.3788 46.0121C20.3708 46.1005 20.3708 46.1894 20.3788 46.2778C20.3788 46.2778 20.3788 46.2778 20.3788 46.4017C20.3788 46.5257 20.3788 46.4017 20.3788 46.5257C20.3788 46.6497 20.3788 46.5257 20.3788 46.632V88.5529L5.59046 97.0894L5.18312 36.9797ZM59.2181 130.58L7.13128 100.472L21.9019 91.9357L58.2617 112.923C58.5334 113.055 58.8281 113.133 59.1296 113.153V113.153C59.4257 113.135 59.7151 113.057 59.9797 112.923H60.0859L96.552 91.9711L111.323 100.508L59.2181 130.58Z" fill="#31DDAB"/>
<path d="M146.325 89.4816V48.4214H157.992L168.194 69.2703L178.331 48.4214H189.935V89.4816H177.949V68.9515L171.382 82.4682H164.942L158.311 68.9515V89.4816H146.325ZM205.136 90.1192C203.223 90.1192 201.438 89.7792 199.78 89.0991C198.165 88.419 196.869 87.3564 195.891 85.9112C194.914 84.466 194.425 82.6383 194.425 80.428C194.425 77.2401 195.487 74.7748 197.613 73.032C199.738 71.2468 202.947 70.3542 207.24 70.3542H215.082V69.7804C215.082 68.5902 214.594 67.7189 213.616 67.1663C212.638 66.6137 210.917 66.3374 208.451 66.3374C204.966 66.3374 201.523 66.8688 198.123 67.9314V60.7267C199.653 60.1316 201.566 59.6428 203.861 59.2603C206.156 58.8352 208.494 58.6227 210.874 58.6227C215.677 58.6227 219.482 59.6003 222.287 61.5556C225.092 63.5108 226.495 66.6137 226.495 70.8643V89.4816H216.039L215.465 87.0588C214.402 87.9939 213.021 88.7378 211.321 89.2904C209.663 89.8429 207.601 90.1192 205.136 90.1192ZM209.217 83.1058C210.577 83.1058 211.724 82.872 212.66 82.4045C213.637 81.9369 214.445 81.3631 215.082 80.683V76.9213H209.28C206.645 76.9213 205.327 77.9627 205.327 80.0454C205.327 82.0857 206.624 83.1058 209.217 83.1058ZM231.937 89.4816V59.2603H243.159L243.478 61.5556C244.625 60.7905 246.134 60.1104 248.004 59.5153C249.917 58.9202 251.957 58.6227 254.125 58.6227C257.908 58.6227 260.671 59.5578 262.414 61.4281C264.156 63.2983 265.028 66.1887 265.028 70.0992V89.4816H253.041V71.3106C253.041 69.9504 252.744 68.9728 252.149 68.3777C251.554 67.7826 250.512 67.4851 249.025 67.4851C248.132 67.4851 247.197 67.6976 246.219 68.1227C245.284 68.5477 244.519 69.0578 243.924 69.6529V89.4816H231.937ZM278.935 100.703C277.235 100.703 275.79 100.597 274.6 100.384C273.452 100.214 272.304 99.9167 271.157 99.4917V91.3306C271.837 91.5856 272.474 91.7557 273.069 91.8407C273.707 91.9257 274.366 91.9682 275.046 91.9682C276.746 91.9682 277.979 91.7557 278.744 91.3306C279.551 90.9056 280.359 90.0555 281.167 88.7803L267.522 59.2603H280.083L287.16 77.0488L294.046 59.2603H306.542L295.385 86.6125C293.642 90.9056 291.495 94.3272 288.945 96.8776C286.437 99.4279 283.101 100.703 278.935 100.703ZM319.97 90.1192C316.272 90.1192 313.637 89.3329 312.064 87.7602C310.491 86.1875 309.705 83.7221 309.705 80.3642V46.5087H321.691V79.0253C321.691 79.9604 321.883 80.598 322.265 80.938C322.648 81.2356 323.243 81.3843 324.05 81.3843C324.603 81.3843 325.134 81.3418 325.644 81.2568C326.197 81.1718 326.707 81.0443 327.175 80.8743V88.844C326.069 89.2691 324.986 89.5879 323.923 89.8004C322.903 90.0129 321.585 90.1192 319.97 90.1192ZM346.451 90.1192C340.415 90.1192 335.952 88.7803 333.062 86.1024C330.214 83.4246 328.79 79.5141 328.79 74.371C328.79 69.2703 330.235 65.3811 333.125 62.7032C336.016 59.9829 340.458 58.6227 346.451 58.6227C352.487 58.6227 356.95 59.9829 359.84 62.7032C362.773 65.3811 364.239 69.2703 364.239 74.371C364.239 79.5141 362.794 83.4246 359.904 86.1024C357.014 88.7803 352.529 90.1192 346.451 90.1192ZM346.451 81.3843C348.406 81.3843 349.809 80.8318 350.659 79.7266C351.552 78.6215 351.998 76.8363 351.998 74.371C351.998 71.9481 351.552 70.1842 350.659 69.079C349.809 67.9314 348.406 67.3576 346.451 67.3576C344.538 67.3576 343.157 67.9314 342.307 69.079C341.457 70.1842 341.031 71.9481 341.031 74.371C341.031 76.8363 341.457 78.6215 342.307 79.7266C343.157 80.8318 344.538 81.3843 346.451 81.3843ZM381.993 100.703C380.505 100.703 378.89 100.639 377.147 100.512C375.404 100.427 373.747 100.257 372.174 100.002C370.644 99.7467 369.368 99.4491 368.348 99.1091V91.4581C369.496 91.8407 370.814 92.1595 372.301 92.4145C373.832 92.6695 375.383 92.8608 376.956 92.9883C378.528 93.1158 379.974 93.1796 381.291 93.1796C383.544 93.1796 385.308 93.0521 386.583 92.7971C387.901 92.5845 388.56 92.1807 388.56 91.5856C388.56 91.0756 388.347 90.7355 387.922 90.5655C387.497 90.438 386.689 90.3742 385.499 90.3742H377.53C374.427 90.3742 372.025 89.8854 370.325 88.9078C368.667 87.8877 367.838 86.3787 367.838 84.381C367.838 81.5756 369.39 79.6204 372.493 78.5152C370.75 77.6226 369.475 76.4962 368.667 75.1361C367.86 73.7759 367.456 72.0544 367.456 69.9716C367.456 66.0611 368.773 63.192 371.409 61.3643C374.087 59.5366 377.933 58.6227 382.949 58.6227C384.012 58.6227 385.202 58.7077 386.519 58.8777C387.837 59.0053 388.793 59.1328 389.389 59.2603H401.248L400.993 66.5287H396.976C397.741 67.5063 398.123 68.6965 398.123 70.0992C398.123 73.2021 397.21 75.6674 395.382 77.4951C393.597 79.2803 390.77 80.1729 386.902 80.1729C386.349 80.1729 385.754 80.1517 385.117 80.1092C384.479 80.0242 383.884 79.9604 383.332 79.9179C382.396 80.0029 381.589 80.1729 380.909 80.428C380.229 80.683 379.889 81.1081 379.889 81.7031C379.889 82.1282 380.08 82.4257 380.462 82.5958C380.845 82.7233 381.376 82.787 382.056 82.787H389.006C392.109 82.787 394.553 83.5096 396.338 84.9548C398.123 86.4 399.016 88.5253 399.016 91.3306C399.016 94.306 397.635 96.6013 394.872 98.2165C392.109 99.8742 387.816 100.703 381.993 100.703ZM383.013 73.6059C384.883 73.6059 386.179 73.2871 386.902 72.6495C387.625 72.0119 387.986 70.9493 387.986 69.4616C387.986 67.9739 387.625 66.89 386.902 66.2099C386.179 65.5298 384.883 65.1898 383.013 65.1898C381.27 65.1898 379.995 65.5298 379.187 66.2099C378.422 66.8475 378.04 67.9314 378.04 69.4616C378.04 70.9068 378.401 71.9694 379.123 72.6495C379.889 73.2871 381.185 73.6059 383.013 73.6059ZM415.207 90.1192C412.614 90.1192 410.17 89.9279 407.875 89.5454C405.622 89.2053 403.837 88.759 402.519 88.2065V79.5991C404.007 80.2792 405.771 80.8105 407.811 81.1931C409.894 81.5756 411.658 81.7669 413.103 81.7669C414.633 81.7669 415.781 81.7244 416.546 81.6394C417.354 81.5544 417.757 81.1931 417.757 80.5555C417.757 79.8329 417.056 79.2803 415.653 78.8978C414.251 78.5152 412.487 77.9627 410.361 77.2401C407.599 76.2624 405.537 75.1148 404.177 73.7971C402.817 72.4795 402.137 70.5667 402.137 68.0589C402.137 65.041 403.327 62.7245 405.707 61.1093C408.087 59.4516 411.828 58.6227 416.929 58.6227C418.884 58.6227 420.903 58.7715 422.986 59.069C425.068 59.3665 426.705 59.7066 427.895 60.0891V68.5052C426.62 67.9526 425.217 67.5488 423.687 67.2938C422.199 67.0388 420.839 66.9113 419.606 66.9113C418.246 66.9113 417.035 66.975 415.972 67.1025C414.91 67.23 414.378 67.5913 414.378 68.1864C414.378 68.8665 414.973 69.3553 416.163 69.6529C417.396 69.9504 419.033 70.418 421.073 71.0555C423.368 71.7356 425.153 72.4795 426.428 73.2871C427.746 74.0947 428.66 75.0723 429.17 76.2199C429.723 77.3676 429.999 78.7915 429.999 80.4917C429.999 83.5521 428.745 85.9324 426.237 87.6326C423.772 89.2904 420.095 90.1192 415.207 90.1192Z" fill="white"/>
</svg>
