<svg width="341" height="116" viewBox="0 0 341 116" fill="none" xmlns="http://www.w3.org/2000/svg">
<path d="M93.7811 69.75L72.7011 81.91V69.75L83.2411 63.66V51.5L93.7811 45.41V69.75ZM41.0811 39.33V75.83L51.6111 69.75V45.41L72.7011 33.08V20.94L41.0811 39.33Z" fill="white"/>
<path d="M105.411 39.33C105.42 39.129 105.373 38.9294 105.276 38.7531C105.179 38.5768 105.035 38.4304 104.861 38.33L73.251 20.13C73.1015 20.0453 72.9328 20.0005 72.761 20V20C72.5892 20.0005 72.4205 20.0453 72.271 20.13V20.13L40.551 38.38C40.3766 38.4804 40.2331 38.6268 40.1362 38.8031C40.0392 38.9794 39.9924 39.179 40.001 39.38V75.88C39.9998 76.0552 40.0446 76.2276 40.131 76.38C40.2221 76.5258 40.3452 76.649 40.491 76.74C40.491 76.74 40.491 76.74 40.491 76.74L72.101 94.98C72.266 95.0777 72.4542 95.1292 72.646 95.1292C72.8378 95.1292 73.026 95.0777 73.191 94.98L104.791 76.74C104.949 76.6442 105.079 76.5101 105.171 76.35V76.35C105.256 76.2005 105.3 76.0318 105.301 75.86L105.411 39.33ZM72.701 34.51L91.581 45.41L83.241 50.23L73.241 44.46H73.121C73.0514 44.4263 72.9773 44.4027 72.901 44.39H72.701H72.491C72.4179 44.4027 72.3471 44.4263 72.281 44.46H72.151L62.151 50.23L53.811 45.41L72.701 34.51ZM72.701 68.51L63.271 63.08V52.13L72.701 46.68L82.141 52.13V63.08L72.701 68.51ZM73.801 70.41L83.801 64.64C83.801 64.64 83.861 64.58 83.901 64.55C83.9622 64.5054 84.0191 64.4552 84.071 64.4C84.1133 64.3472 84.1502 64.2902 84.181 64.23C84.2188 64.1743 84.2491 64.1137 84.271 64.05C84.2798 63.9736 84.2798 63.8964 84.271 63.82C84.2767 63.7769 84.2767 63.7332 84.271 63.69V52.13L92.611 47.31V69.08L73.731 79.98L73.801 70.41ZM42.191 39.96L71.611 22.96V32.59L51.081 44.46V44.51C51.0387 44.5368 50.9985 44.5668 50.961 44.6C50.9228 44.6281 50.8891 44.6618 50.861 44.7C50.8286 44.7382 50.7986 44.7782 50.771 44.82V44.87C50.771 44.87 50.771 44.87 50.771 44.93C50.771 44.99 50.771 45.01 50.771 45.06C50.7665 45.1099 50.7665 45.1601 50.771 45.21C50.771 45.21 50.771 45.21 50.771 45.28C50.771 45.35 50.771 45.28 50.771 45.35C50.771 45.42 50.771 45.35 50.771 45.41V69.08L42.421 73.9L42.191 39.96ZM72.701 92.81L43.291 75.81L51.631 70.99L72.161 82.84C72.3144 82.9146 72.4808 82.9587 72.651 82.97V82.97C72.8182 82.9601 72.9816 82.9158 73.131 82.84H73.191L93.781 71.01L102.121 75.83L72.701 92.81Z" fill="#621E95"/>
<path d="M124.452 71.5646V45.8046H130.812L137.812 60.0846L144.772 45.8046H151.092V71.5646H144.652V56.7646L139.572 67.1646H136.012L130.892 56.7646V71.5646H124.452ZM161.075 71.9646C159.875 71.9646 158.755 71.7513 157.715 71.3246C156.702 70.8979 155.888 70.2446 155.275 69.3646C154.662 68.4579 154.355 67.3379 154.355 66.0046C154.355 64.0579 155.008 62.5379 156.315 61.4446C157.648 60.3246 159.635 59.7646 162.275 59.7646H167.555V59.3246C167.555 58.3646 167.235 57.6846 166.595 57.2846C165.955 56.8579 164.755 56.6446 162.995 56.6446C160.835 56.6446 158.715 56.9779 156.635 57.6446V53.4846C157.568 53.1113 158.702 52.8046 160.035 52.5646C161.395 52.3246 162.822 52.2046 164.315 52.2046C167.248 52.2046 169.542 52.8046 171.195 54.0046C172.875 55.2046 173.715 57.1113 173.715 59.7246V71.5646H168.075L167.755 69.9646C167.062 70.6046 166.168 71.0979 165.075 71.4446C164.008 71.7913 162.675 71.9646 161.075 71.9646ZM163.115 68.0046C164.128 68.0046 165.008 67.8313 165.755 67.4846C166.502 67.1379 167.102 66.6979 167.555 66.1646V63.4846H162.995C161.102 63.4846 160.155 64.2446 160.155 65.7646C160.155 66.4579 160.395 67.0046 160.875 67.4046C161.355 67.8046 162.102 68.0046 163.115 68.0046ZM177.577 71.5646V52.6046H183.577L183.777 54.2446C184.55 53.7113 185.524 53.2446 186.697 52.8446C187.87 52.4179 189.124 52.2046 190.457 52.2046C192.91 52.2046 194.697 52.7913 195.817 53.9646C196.937 55.1379 197.497 56.9513 197.497 59.4046V71.5646H191.057V59.9246C191.057 58.8579 190.83 58.0979 190.377 57.6446C189.924 57.1913 189.11 56.9646 187.937 56.9646C187.244 56.9646 186.537 57.1246 185.817 57.4446C185.097 57.7646 184.497 58.1646 184.017 58.6446V71.5646H177.577ZM205.99 78.6046C205.03 78.6046 204.204 78.5513 203.51 78.4446C202.844 78.3646 202.177 78.1913 201.51 77.9246V73.4446C201.964 73.6046 202.377 73.7113 202.75 73.7646C203.15 73.8179 203.55 73.8446 203.95 73.8446C205.044 73.8446 205.857 73.6446 206.39 73.2446C206.95 72.8713 207.51 72.1913 208.07 71.2046L199.55 52.6046H206.31L211.31 64.6446L216.23 52.6046H222.95L215.71 70.0046C214.99 71.7379 214.19 73.2446 213.31 74.5246C212.43 75.8313 211.404 76.8313 210.23 77.5246C209.057 78.2446 207.644 78.6046 205.99 78.6046ZM231.269 71.9646C229.189 71.9646 227.695 71.5113 226.789 70.6046C225.882 69.6979 225.429 68.2446 225.429 66.2446V44.6046H231.869V65.6046C231.869 66.2179 231.989 66.6446 232.229 66.8846C232.495 67.0979 232.882 67.2046 233.389 67.2046C234.109 67.2046 234.749 67.1113 235.309 66.9246V71.2846C234.695 71.5246 234.082 71.6979 233.469 71.8046C232.882 71.9113 232.149 71.9646 231.269 71.9646ZM247.613 71.9646C243.96 71.9646 241.267 71.1246 239.533 69.4446C237.8 67.7379 236.933 65.2846 236.933 62.0846C236.933 58.9113 237.8 56.4713 239.533 54.7646C241.293 53.0579 243.987 52.2046 247.613 52.2046C251.267 52.2046 253.96 53.0579 255.693 54.7646C257.453 56.4713 258.333 58.9113 258.333 62.0846C258.333 65.2846 257.467 67.7379 255.733 69.4446C254 71.1246 251.293 71.9646 247.613 71.9646ZM247.613 66.9246C249.107 66.9246 250.173 66.5513 250.813 65.8046C251.453 65.0579 251.773 63.8179 251.773 62.0846C251.773 60.3513 251.453 59.1113 250.813 58.3646C250.173 57.6179 249.107 57.2446 247.613 57.2446C246.147 57.2446 245.093 57.6179 244.453 58.3646C243.813 59.1113 243.493 60.3513 243.493 62.0846C243.493 63.8179 243.813 65.0579 244.453 65.8046C245.093 66.5513 246.147 66.9246 247.613 66.9246ZM269.76 78.6046C268.827 78.6046 267.84 78.5646 266.8 78.4846C265.76 78.4046 264.774 78.2846 263.84 78.1246C262.907 77.9646 262.107 77.7779 261.44 77.5646V73.1646C262.507 73.5113 263.787 73.7779 265.28 73.9646C266.774 74.1513 268.147 74.2446 269.4 74.2446C271.027 74.2446 272.24 74.1513 273.04 73.9646C273.867 73.8046 274.28 73.5113 274.28 73.0846C274.28 72.7113 274.12 72.4579 273.8 72.3246C273.48 72.1913 272.854 72.1246 271.92 72.1246H266.68C264.974 72.1246 263.64 71.8179 262.68 71.2046C261.747 70.5913 261.28 69.6979 261.28 68.5246C261.28 67.7246 261.52 66.9646 262 66.2446C262.507 65.5246 263.24 64.9913 264.2 64.6446C263.107 64.0846 262.28 63.3779 261.72 62.5246C261.16 61.6713 260.88 60.5913 260.88 59.2846C260.88 56.8313 261.667 55.0446 263.24 53.9246C264.84 52.7779 267.174 52.2046 270.24 52.2046C270.88 52.2046 271.587 52.2579 272.36 52.3646C273.16 52.4446 273.747 52.5246 274.12 52.6046H281.4L281.24 56.6046H278.48C279.147 57.2713 279.48 58.2579 279.48 59.5646C279.48 61.4046 278.88 62.8846 277.68 64.0046C276.507 65.1246 274.72 65.6846 272.32 65.6846C271.92 65.6846 271.52 65.6713 271.12 65.6446C270.747 65.5913 270.374 65.5513 270 65.5246C269.307 65.6046 268.707 65.7513 268.2 65.9646C267.72 66.1779 267.48 66.4846 267.48 66.8846C267.48 67.2046 267.6 67.4179 267.84 67.5246C268.107 67.6313 268.494 67.6846 269 67.6846H273.84C275.787 67.6846 277.294 68.1379 278.36 69.0446C279.454 69.9246 280 71.2179 280 72.9246C280 76.7113 276.587 78.6046 269.76 78.6046ZM270.28 62.1246C271.694 62.1246 272.667 61.8846 273.2 61.4046C273.734 60.9246 274 60.1246 274 59.0046C274 57.8846 273.72 57.0713 273.16 56.5646C272.627 56.0579 271.667 55.8046 270.28 55.8046C268.974 55.8046 268.027 56.0579 267.44 56.5646C266.88 57.0446 266.6 57.8579 266.6 59.0046C266.6 60.0713 266.867 60.8579 267.4 61.3646C267.934 61.8713 268.894 62.1246 270.28 62.1246ZM290.164 71.9646C288.644 71.9646 287.204 71.8579 285.844 71.6446C284.484 71.4313 283.404 71.1646 282.604 70.8446V65.9246C283.537 66.3246 284.617 66.6313 285.844 66.8446C287.071 67.0579 288.164 67.1646 289.124 67.1646C290.271 67.1646 291.097 67.1113 291.604 67.0046C292.137 66.8979 292.404 66.6046 292.404 66.1246C292.404 65.5913 291.977 65.1913 291.124 64.9246C290.271 64.6579 289.097 64.2713 287.604 63.7646C285.871 63.1513 284.551 62.4446 283.644 61.6446C282.764 60.8179 282.324 59.6046 282.324 58.0046C282.324 56.1379 283.017 54.7113 284.404 53.7246C285.817 52.7113 288.057 52.2046 291.124 52.2046C292.324 52.2046 293.511 52.2979 294.684 52.4846C295.857 52.6713 296.817 52.8846 297.564 53.1246V57.9646C296.817 57.6179 295.964 57.3646 295.004 57.2046C294.044 57.0446 293.177 56.9646 292.404 56.9646C291.417 56.9646 290.577 57.0313 289.884 57.1646C289.217 57.2713 288.884 57.5513 288.884 58.0046C288.884 58.5113 289.257 58.8713 290.004 59.0846C290.751 59.2713 291.831 59.5913 293.244 60.0446C294.737 60.4979 295.897 60.9913 296.724 61.5246C297.551 62.0313 298.137 62.6446 298.484 63.3646C298.831 64.0846 299.004 64.9913 299.004 66.0846C299.004 67.9779 298.257 69.4313 296.764 70.4446C295.271 71.4579 293.071 71.9646 290.164 71.9646Z" fill="#621E95"/>
</svg>
