<svg width="245" height="77" viewBox="0 0 245 77" fill="none" xmlns="http://www.w3.org/2000/svg">
<path d="M54.5165 50.67L33.4365 62.83V50.67L43.9765 44.58V32.42L54.5165 26.33V50.67ZM1.8165 20.25V56.75L12.3465 50.67V26.33L33.4365 14V1.85999L1.8165 20.25Z" fill="#31DDAB"/>
<path d="M66.1465 20.25C66.1551 20.0489 66.1083 19.8494 66.0113 19.6731C65.9144 19.4968 65.7709 19.3504 65.5965 19.25L33.9865 1.04998C33.837 0.965282 33.6683 0.920509 33.4965 0.919983C33.3247 0.920509 33.156 0.965282 33.0065 1.04998L1.2865 19.3C1.11213 19.4004 0.968646 19.5468 0.87167 19.7231C0.774694 19.8994 0.727939 20.0989 0.7365 20.3V56.8C0.73529 56.9752 0.780121 57.1476 0.866501 57.3C0.957554 57.4458 1.08068 57.5689 1.2265 57.66L32.8365 75.9C33.0015 75.9977 33.1898 76.0492 33.3815 76.0492C33.5733 76.0492 33.7615 75.9977 33.9265 75.9L65.5265 57.66C65.6841 57.5642 65.8149 57.43 65.9065 57.27C65.9912 57.1205 66.036 56.9518 66.0365 56.78L66.1465 20.25ZM33.4365 15.43L52.3165 26.33L43.9765 31.15L33.9765 25.38H33.8565C33.7869 25.3463 33.7128 25.3227 33.6365 25.31H33.4365H33.2265C33.1534 25.3227 33.0826 25.3463 33.0165 25.38H32.8865L22.8865 31.15L14.5465 26.33L33.4365 15.43ZM33.4365 49.43L24.0065 44V33.05L33.4365 27.6L42.8765 33.05V44L33.4365 49.43ZM34.5365 51.33L44.5365 45.56C44.5365 45.56 44.5965 45.5 44.6365 45.47C44.6977 45.4254 44.7546 45.3752 44.8065 45.32C44.8488 45.2672 44.8857 45.2102 44.9165 45.15C44.9543 45.0942 44.9846 45.0337 45.0065 44.97C45.0154 44.8936 45.0154 44.8164 45.0065 44.74C45.0122 44.6968 45.0122 44.6531 45.0065 44.61V33.05L53.3465 28.23V50L34.4665 60.9L34.5365 51.33ZM2.9265 20.88L32.3465 3.87999V13.51L11.8165 25.38V25.43C11.7742 25.4567 11.734 25.4868 11.6965 25.52C11.6583 25.5481 11.6246 25.5818 11.5965 25.62C11.5641 25.6581 11.5341 25.6982 11.5065 25.74V25.79C11.5065 25.79 11.5065 25.79 11.5065 25.85C11.5065 25.91 11.5065 25.93 11.5065 25.98C11.502 26.0299 11.502 26.0801 11.5065 26.13C11.5065 26.13 11.5065 26.13 11.5065 26.2C11.5065 26.27 11.5065 26.2 11.5065 26.27C11.5065 26.34 11.5065 26.27 11.5065 26.33V50L3.1565 54.82L2.9265 20.88ZM33.4365 73.73L4.0265 56.73L12.3665 51.91L32.8965 63.76C33.0499 63.8346 33.2163 63.8787 33.3865 63.89C33.5537 63.8801 33.7171 63.8358 33.8665 63.76H33.9265L54.5165 51.93L62.8565 56.75L33.4365 73.73Z" fill="#621E95"/>
<path d="M85.836 49V25.816H91.56L97.86 38.668L104.124 25.816H109.812V49H104.016V35.68L99.444 45.04H96.24L91.632 35.68V49H85.836ZM118.797 49.36C117.717 49.36 116.709 49.168 115.773 48.784C114.861 48.4 114.129 47.812 113.577 47.02C113.025 46.204 112.749 45.196 112.749 43.996C112.749 42.244 113.337 40.876 114.513 39.892C115.713 38.884 117.501 38.38 119.877 38.38H124.629V37.984C124.629 37.12 124.341 36.508 123.765 36.148C123.189 35.764 122.109 35.572 120.525 35.572C118.581 35.572 116.673 35.872 114.801 36.472V32.728C115.641 32.392 116.661 32.116 117.861 31.9C119.085 31.684 120.369 31.576 121.713 31.576C124.353 31.576 126.417 32.116 127.905 33.196C129.417 34.276 130.173 35.992 130.173 38.344V49H125.097L124.809 47.56C124.185 48.136 123.381 48.58 122.397 48.892C121.437 49.204 120.237 49.36 118.797 49.36ZM120.633 45.796C121.545 45.796 122.337 45.64 123.009 45.328C123.681 45.016 124.221 44.62 124.629 44.14V41.728H120.525C118.821 41.728 117.969 42.412 117.969 43.78C117.969 44.404 118.185 44.896 118.617 45.256C119.049 45.616 119.721 45.796 120.633 45.796ZM133.649 49V31.936H139.049L139.229 33.412C139.925 32.932 140.801 32.512 141.857 32.152C142.913 31.768 144.041 31.576 145.241 31.576C147.449 31.576 149.057 32.104 150.065 33.16C151.073 34.216 151.577 35.848 151.577 38.056V49H145.781V38.524C145.781 37.564 145.577 36.88 145.169 36.472C144.761 36.064 144.029 35.86 142.973 35.86C142.349 35.86 141.713 36.004 141.064 36.292C140.417 36.58 139.877 36.94 139.445 37.372V49H133.649ZM159.221 55.336C158.357 55.336 157.613 55.288 156.989 55.192C156.389 55.12 155.789 54.964 155.189 54.724V50.692C155.597 50.836 155.969 50.932 156.305 50.98C156.665 51.028 157.025 51.052 157.385 51.052C158.369 51.052 159.101 50.872 159.581 50.512C160.085 50.176 160.589 49.564 161.093 48.676L153.425 31.936H159.509L164.009 42.772L168.437 31.936H174.485L167.969 47.596C167.321 49.156 166.601 50.512 165.809 51.664C165.017 52.84 164.093 53.74 163.037 54.364C161.981 55.012 160.709 55.336 159.221 55.336ZM181.971 49.36C180.099 49.36 178.755 48.952 177.939 48.136C177.123 47.32 176.715 46.012 176.715 44.212V24.736H182.511V43.636C182.511 44.188 182.619 44.572 182.835 44.788C183.075 44.98 183.423 45.076 183.879 45.076C184.527 45.076 185.103 44.992 185.607 44.824V48.748C185.055 48.964 184.503 49.12 183.951 49.216C183.423 49.312 182.763 49.36 181.971 49.36ZM196.681 49.36C193.393 49.36 190.969 48.604 189.409 47.092C187.849 45.556 187.069 43.348 187.069 40.468C187.069 37.612 187.849 35.416 189.409 33.88C190.993 32.344 193.417 31.576 196.681 31.576C199.969 31.576 202.393 32.344 203.953 33.88C205.537 35.416 206.329 37.612 206.329 40.468C206.329 43.348 205.549 45.556 203.989 47.092C202.429 48.604 199.993 49.36 196.681 49.36ZM196.681 44.824C198.025 44.824 198.985 44.488 199.561 43.816C200.137 43.144 200.425 42.028 200.425 40.468C200.425 38.908 200.137 37.792 199.561 37.12C198.985 36.448 198.025 36.112 196.681 36.112C195.361 36.112 194.413 36.448 193.837 37.12C193.261 37.792 192.973 38.908 192.973 40.468C192.973 42.028 193.261 43.144 193.837 43.816C194.413 44.488 195.361 44.824 196.681 44.824ZM216.614 55.336C215.774 55.336 214.886 55.3 213.95 55.228C213.014 55.156 212.126 55.048 211.286 54.904C210.446 54.76 209.726 54.592 209.126 54.4V50.44C210.086 50.752 211.238 50.992 212.582 51.16C213.926 51.328 215.162 51.412 216.29 51.412C217.754 51.412 218.846 51.328 219.566 51.16C220.31 51.016 220.682 50.752 220.682 50.368C220.682 50.032 220.538 49.804 220.25 49.684C219.962 49.564 219.398 49.504 218.558 49.504H213.842C212.306 49.504 211.106 49.228 210.242 48.676C209.402 48.124 208.982 47.32 208.982 46.264C208.982 45.544 209.198 44.86 209.63 44.212C210.086 43.564 210.746 43.084 211.61 42.772C210.626 42.268 209.882 41.632 209.378 40.864C208.874 40.096 208.622 39.124 208.622 37.948C208.622 35.74 209.33 34.132 210.746 33.124C212.186 32.092 214.286 31.576 217.046 31.576C217.622 31.576 218.258 31.624 218.954 31.72C219.674 31.792 220.202 31.864 220.538 31.936H227.09L226.946 35.536H224.462C225.062 36.136 225.362 37.024 225.362 38.2C225.362 39.856 224.822 41.188 223.742 42.196C222.686 43.204 221.078 43.708 218.918 43.708C218.558 43.708 218.198 43.696 217.838 43.672C217.502 43.624 217.166 43.588 216.83 43.564C216.206 43.636 215.666 43.768 215.21 43.96C214.778 44.152 214.562 44.428 214.562 44.788C214.562 45.076 214.67 45.268 214.886 45.364C215.126 45.46 215.474 45.508 215.93 45.508H220.286C222.038 45.508 223.394 45.916 224.354 46.732C225.338 47.524 225.83 48.688 225.83 50.224C225.83 53.632 222.758 55.336 216.614 55.336ZM217.082 40.504C218.354 40.504 219.23 40.288 219.71 39.856C220.19 39.424 220.43 38.704 220.43 37.696C220.43 36.688 220.178 35.956 219.674 35.5C219.194 35.044 218.33 34.816 217.082 34.816C215.906 34.816 215.054 35.044 214.526 35.5C214.022 35.932 213.77 36.664 213.77 37.696C213.77 38.656 214.01 39.364 214.49 39.82C214.97 40.276 215.834 40.504 217.082 40.504ZM234.977 49.36C233.609 49.36 232.313 49.264 231.089 49.072C229.865 48.88 228.893 48.64 228.173 48.352V43.924C229.013 44.284 229.985 44.56 231.089 44.752C232.193 44.944 233.177 45.04 234.041 45.04C235.073 45.04 235.817 44.992 236.273 44.896C236.753 44.8 236.993 44.536 236.993 44.104C236.993 43.624 236.609 43.264 235.841 43.024C235.073 42.784 234.017 42.436 232.673 41.98C231.113 41.428 229.925 40.792 229.109 40.072C228.317 39.328 227.921 38.236 227.921 36.796C227.921 35.116 228.545 33.832 229.793 32.944C231.065 32.032 233.081 31.576 235.841 31.576C236.921 31.576 237.989 31.66 239.045 31.828C240.101 31.996 240.965 32.188 241.637 32.404V36.76C240.965 36.448 240.197 36.22 239.333 36.076C238.469 35.932 237.689 35.86 236.993 35.86C236.105 35.86 235.349 35.92 234.725 36.04C234.125 36.136 233.825 36.388 233.825 36.796C233.825 37.252 234.161 37.576 234.833 37.768C235.505 37.936 236.477 38.224 237.749 38.632C239.093 39.04 240.137 39.484 240.881 39.964C241.625 40.42 242.153 40.972 242.465 41.62C242.777 42.268 242.933 43.084 242.933 44.068C242.933 45.772 242.261 47.08 240.917 47.992C239.573 48.904 237.593 49.36 234.977 49.36Z" fill="#621E95"/>
</svg>
