<svg width="600" height="600" viewBox="0 0 600 600" fill="none" xmlns="http://www.w3.org/2000/svg">
<g clip-path="url(#clip0_325137)">
<rect width="600" height="600" rx="20" fill="url(#paint0_linear_325137)" fill-opacity="0.87"/>
<rect opacity="0.57" x="212" y="36" width="346" height="515" rx="8.87474" fill="#302C3F"/>
<rect opacity="0.4" x="226" y="56" width="265" height="44" rx="3.4958" fill="#302C3F"/>
<g opacity="0.8">
<rect x="231.235" y="64.9749" width="30.5882" height="26.2185" rx="3.4958" fill="#6A95BD"/>
<path d="M241.623 77.7969H242.764C242.516 76.3604 241.288 75.3668 239.697 75.3668C237.789 75.3668 236.396 76.8032 236.396 79.1577C236.396 81.4905 237.749 82.9414 239.747 82.9414C241.537 82.9414 242.815 81.7677 242.815 79.9065V79.0677H239.917V79.9857H241.738C241.713 81.1737 240.928 81.9262 239.747 81.9262C238.448 81.9262 237.501 80.9433 237.501 79.1505C237.501 77.3648 238.455 76.382 239.704 76.382C240.683 76.382 241.346 76.922 241.623 77.7969ZM244.227 82.8406H248.892V81.883H245.339V79.6257H248.608V78.6717H245.339V76.4252H248.849V75.4676H244.227V82.8406ZM249.972 76.4252H252.268V82.8406H253.377V76.4252H255.678V75.4676H249.972V76.4252Z" fill="white"/>
</g>
<g opacity="0.8">
<rect x="267.067" y="64.9749" width="30.5882" height="26.2185" rx="3.4958" fill="#92CB84"/>
<path d="M272.848 82.8406H277.827V81.741H274.664V81.6914L275.916 80.4181C277.327 79.0632 277.718 78.4034 277.718 77.5841C277.718 76.3675 276.728 75.4773 275.267 75.4773C273.827 75.4773 272.805 76.3711 272.805 77.7508H274.057C274.057 77.0095 274.525 76.5449 275.249 76.5449C275.941 76.5449 276.455 76.967 276.455 77.6515C276.455 78.258 276.086 78.6907 275.37 79.4178L272.848 81.89V82.8406ZM281.736 82.9789C283.488 82.9825 284.535 81.5992 284.535 79.2157C284.535 76.8464 283.481 75.4773 281.736 75.4773C279.991 75.4773 278.941 76.8428 278.938 79.2157C278.938 81.5956 279.984 82.9789 281.736 82.9789ZM281.736 81.8687C280.832 81.8687 280.264 80.9607 280.268 79.2157C280.271 77.4848 280.835 76.5733 281.736 76.5733C282.641 76.5733 283.205 77.4848 283.208 79.2157C283.208 80.9607 282.644 81.8687 281.736 81.8687ZM288.398 82.9789C290.15 82.9825 291.197 81.5992 291.197 79.2157C291.197 76.8464 290.143 75.4773 288.398 75.4773C286.653 75.4773 285.603 76.8428 285.6 79.2157C285.6 81.5956 286.646 82.9789 288.398 82.9789ZM288.398 81.8687C287.494 81.8687 286.926 80.9607 286.93 79.2157C286.933 77.4848 287.497 76.5733 288.398 76.5733C289.303 76.5733 289.866 77.4848 289.87 79.2157C289.87 80.9607 289.306 81.8687 288.398 81.8687Z" fill="white"/>
</g>
<rect x="310.765" y="80.7058" width="112.675" height="8.7395" rx="3.4958" fill="#302C3F"/>
<rect x="310.765" y="80.7058" width="112.675" height="8.7395" rx="3.4958" fill="#302C3F"/>
<rect x="310.765" y="64.9746" width="147.235" height="8.7395" rx="3.4958" fill="#302C3F"/>
<rect opacity="0.6" x="225.992" y="130.521" width="318.118" height="147.697" rx="6.9916" fill="#302C3F"/>
<rect x="238" y="148" width="96" height="9" rx="3.4958" fill="#302C3F"/>
<rect x="238" y="168" width="147" height="9" rx="3.4958" fill="#302C3F"/>
<rect x="238" y="188" width="58" height="9" rx="3.4958" fill="#302C3F"/>
<rect x="238" y="208" width="144" height="9" rx="3.4958" fill="#302C3F"/>
<rect x="238" y="228" width="185" height="9" rx="3.4958" fill="#302C3F"/>
<rect x="238" y="248" width="116" height="9" rx="3.4958" fill="#302C3F"/>
<rect opacity="0.6" x="225.992" y="311.428" width="318.118" height="228.975" rx="6.9916" fill="#302C3F"/>
<rect x="238" y="329" width="96" height="9" rx="3.4958" fill="#302C3F"/>
<rect x="238" y="349" width="147" height="9" rx="3.4958" fill="#302C3F"/>
<rect x="238" y="369" width="58" height="9" rx="3.4958" fill="#302C3F"/>
<rect x="238" y="389" width="144" height="9" rx="3.4958" fill="#302C3F"/>
<rect x="238" y="409" width="185" height="9" rx="3.4958" fill="#302C3F"/>
<rect x="238" y="429" width="116" height="9" rx="3.4958" fill="#302C3F"/>
<rect x="238" y="449" width="116" height="9" rx="3.4958" fill="#302C3F"/>
<rect x="238" y="469" width="116" height="9" rx="3.4958" fill="#302C3F"/>
<rect x="238" y="489" width="205" height="9" rx="3.4958" fill="#302C3F"/>
<rect x="238" y="509" width="173" height="9" rx="3.4958" fill="#302C3F"/>
<circle cx="520" cy="78" r="20" fill="#31DDAB" fill-opacity="0.9"/>
<g opacity="0.93">
<path d="M515 83.0001L523 75.0001M522 70.0001L528 76.0001L522 70.0001ZM530.294 71.2943C530.684 71.6841 530.681 72.3188 530.286 72.7136L517 86.0001L510 88.0001L512 81.0001L525.286 67.7136C525.681 67.3195 526.313 67.3129 526.706 67.7059L530.294 71.2943ZM511 85.0001L513 87.0001L511 85.0001Z" stroke="#434343" stroke-opacity="0.83" stroke-width="2"/>
</g>
<path d="M231.717 125H233.035V121.911H236.405V125H237.726V117.727H236.405V120.806H233.035V117.727H231.717V125ZM241.517 125.107C242.788 125.107 243.662 124.485 243.889 123.537L242.689 123.402C242.515 123.864 242.088 124.105 241.534 124.105C240.703 124.105 240.153 123.558 240.142 122.624H243.942V122.23C243.942 120.316 242.792 119.474 241.449 119.474C239.887 119.474 238.868 120.621 238.868 122.305C238.868 124.016 239.873 125.107 241.517 125.107ZM240.146 121.758C240.185 121.062 240.7 120.476 241.467 120.476C242.206 120.476 242.703 121.016 242.71 121.758H240.146ZM246.599 125.11C247.455 125.11 247.966 124.709 248.201 124.251H248.243V125H249.479V121.349C249.479 119.908 248.304 119.474 247.263 119.474C246.116 119.474 245.236 119.986 244.952 120.98L246.152 121.151C246.28 120.778 246.642 120.458 247.27 120.458C247.867 120.458 248.194 120.763 248.194 121.3V121.321C248.194 121.69 247.807 121.708 246.844 121.811C245.786 121.925 244.774 122.241 244.774 123.469C244.774 124.542 245.559 125.11 246.599 125.11ZM246.933 124.165C246.397 124.165 246.013 123.92 246.013 123.448C246.013 122.955 246.443 122.749 247.018 122.667C247.356 122.621 248.03 122.536 248.197 122.401V123.043C248.197 123.651 247.707 124.165 246.933 124.165ZM252.796 125.096C253.733 125.096 254.156 124.538 254.358 124.141H254.437V125H255.701V117.727H254.412V120.447H254.358C254.163 120.053 253.762 119.474 252.8 119.474C251.539 119.474 250.548 120.462 250.548 122.28C250.548 124.077 251.51 125.096 252.796 125.096ZM253.155 124.041C252.306 124.041 251.858 123.295 251.858 122.273C251.858 121.257 252.299 120.529 253.155 120.529C253.982 120.529 254.437 121.214 254.437 122.273C254.437 123.331 253.975 124.041 253.155 124.041ZM259.485 125.107C260.757 125.107 261.63 124.485 261.858 123.537L260.657 123.402C260.483 123.864 260.057 124.105 259.503 124.105C258.672 124.105 258.122 123.558 258.111 122.624H261.911V122.23C261.911 120.316 260.76 119.474 259.418 119.474C257.855 119.474 256.836 120.621 256.836 122.305C256.836 124.016 257.841 125.107 259.485 125.107ZM258.115 121.758C258.154 121.062 258.669 120.476 259.436 120.476C260.174 120.476 260.672 121.016 260.679 121.758H258.115ZM262.998 125H264.284V121.793C264.284 121.101 264.806 120.611 265.513 120.611C265.729 120.611 265.999 120.65 266.109 120.685V119.503C265.992 119.482 265.79 119.467 265.648 119.467C265.023 119.467 264.501 119.822 264.302 120.455H264.245V119.545H262.998V125ZM271.274 120.987C271.097 120.064 270.358 119.474 269.08 119.474C267.766 119.474 266.871 120.121 266.874 121.129C266.871 121.925 267.361 122.45 268.409 122.667L269.339 122.862C269.84 122.972 270.074 123.175 270.074 123.484C270.074 123.857 269.669 124.137 269.058 124.137C268.469 124.137 268.085 123.881 267.975 123.391L266.722 123.512C266.882 124.513 267.723 125.107 269.062 125.107C270.426 125.107 271.388 124.4 271.392 123.366C271.388 122.589 270.887 122.113 269.857 121.889L268.927 121.69C268.373 121.566 268.153 121.374 268.156 121.058C268.153 120.689 268.561 120.433 269.097 120.433C269.691 120.433 270.003 120.756 270.102 121.115L271.274 120.987Z" fill="white"/>
<path d="M231.717 304H234.661C236.327 304 237.143 303.151 237.143 302.018C237.143 300.918 236.362 300.271 235.588 300.232V300.161C236.298 299.994 236.859 299.497 236.859 298.613C236.859 297.53 236.078 296.727 234.501 296.727H231.717V304ZM233.035 302.899V300.768H234.487C235.3 300.768 235.805 301.266 235.805 301.915C235.805 302.494 235.407 302.899 234.452 302.899H233.035ZM233.035 299.82V297.814H234.366C235.141 297.814 235.542 298.222 235.542 298.783C235.542 299.423 235.023 299.82 234.338 299.82H233.035ZM240.612 304.107C242.21 304.107 243.226 302.981 243.226 301.294C243.226 299.604 242.21 298.474 240.612 298.474C239.014 298.474 237.998 299.604 237.998 301.294C237.998 302.981 239.014 304.107 240.612 304.107ZM240.619 303.077C239.735 303.077 239.302 302.288 239.302 301.29C239.302 300.293 239.735 299.494 240.619 299.494C241.489 299.494 241.922 300.293 241.922 301.29C241.922 302.288 241.489 303.077 240.619 303.077ZM246.341 304.096C247.278 304.096 247.701 303.538 247.903 303.141H247.982V304H249.246V296.727H247.957V299.447H247.903C247.708 299.053 247.307 298.474 246.344 298.474C245.084 298.474 244.093 299.462 244.093 301.28C244.093 303.077 245.055 304.096 246.341 304.096ZM246.7 303.041C245.851 303.041 245.403 302.295 245.403 301.273C245.403 300.257 245.844 299.529 246.7 299.529C247.527 299.529 247.982 300.214 247.982 301.273C247.982 302.331 247.52 303.041 246.7 303.041ZM251.415 306.045C252.416 306.045 252.995 305.531 253.304 304.661L255.495 298.553L254.121 298.545L252.86 302.665H252.803L251.546 298.545H250.182L252.16 304.114L252.05 304.408C251.812 305.03 251.436 305.072 250.875 304.909L250.577 305.911C250.751 305.982 251.063 306.045 251.415 306.045Z" fill="white"/>
<g opacity="0.1" filter="url(#filter0_f_325137)">
<circle cx="12" cy="306" r="75" fill="white"/>
</g>
<circle opacity="0.12" cx="12.444" cy="306.444" r="66.568" fill="white"/>
<circle opacity="0.69" cx="12.4443" cy="306.444" r="57.6923" fill="white"/>
<g clip-path="url(#clip1_325137)">
<path d="M30.6541 316.802L11.944 327.595V316.802L21.299 311.396V300.604L30.6541 295.198V316.802ZM-16.1211 289.802V322.198L-6.77494 316.802V295.198L11.944 284.254V273.479L-16.1211 289.802Z" fill="#31DDAB"/>
<path d="M40.976 289.802C40.9837 289.623 40.9421 289.446 40.856 289.29C40.77 289.133 40.6427 289.003 40.4879 288.914L12.4317 272.76C12.299 272.685 12.1492 272.645 11.9968 272.645C11.8443 272.645 11.6945 272.685 11.5618 272.76L-16.592 288.959C-16.7468 289.048 -16.8741 289.178 -16.9602 289.334C-17.0463 289.491 -17.0878 289.668 -17.0802 289.846V322.243C-17.0812 322.398 -17.0415 322.551 -16.9648 322.686C-16.884 322.816 -16.7747 322.925 -16.6453 323.006L11.411 339.195C11.5574 339.282 11.7245 339.328 11.8947 339.328C12.0649 339.328 12.232 339.282 12.3784 339.195L40.4257 323.006C40.5656 322.921 40.6817 322.802 40.763 322.66C40.8382 322.527 40.878 322.377 40.8784 322.225L40.976 289.802ZM11.9435 285.524L28.7009 295.198L21.2985 299.476L12.4228 294.355H12.3163C12.2545 294.325 12.1887 294.304 12.121 294.293H11.9435H11.7571C11.6922 294.304 11.6294 294.325 11.5707 294.355H11.4553L2.57959 299.476L-4.82277 295.198L11.9435 285.524ZM11.9435 315.701L3.57368 310.882V301.163L11.9435 296.325L20.3222 301.163V310.882L11.9435 315.701ZM12.9198 317.388L21.7956 312.266C21.7956 312.266 21.8488 312.213 21.8843 312.186C21.9386 312.147 21.9891 312.102 22.0352 312.053C22.0728 312.006 22.1055 311.956 22.1328 311.902C22.1664 311.853 22.1933 311.799 22.2127 311.743C22.2206 311.675 22.2206 311.606 22.2127 311.539C22.2178 311.5 22.2178 311.461 22.2127 311.423V301.163L29.6151 296.885V316.207L12.8577 325.882L12.9198 317.388ZM-15.1364 290.361L10.976 275.272V283.82L-7.24585 294.355V294.399C-7.2834 294.423 -7.31908 294.45 -7.35236 294.479C-7.38627 294.504 -7.41618 294.534 -7.44112 294.568C-7.46987 294.602 -7.4965 294.638 -7.521 294.675V294.719C-7.521 294.719 -7.521 294.719 -7.521 294.772C-7.521 294.825 -7.521 294.843 -7.521 294.888C-7.52499 294.932 -7.52499 294.976 -7.521 295.021C-7.521 295.021 -7.521 295.021 -7.521 295.083C-7.521 295.145 -7.521 295.083 -7.521 295.145C-7.521 295.207 -7.521 295.145 -7.521 295.198V316.207L-14.9322 320.485L-15.1364 290.361ZM11.9435 337.269L-14.1601 322.181L-6.75769 317.902L11.4642 328.42C11.6004 328.486 11.7481 328.526 11.8991 328.536C12.0475 328.527 12.1926 328.487 12.3252 328.42H12.3784L30.6536 317.92L38.0559 322.198L11.9435 337.269Z" fill="#621E95"/>
</g>
<line opacity="0.2" x1="7.5" y1="-7.5" x2="107.99" y2="-7.5" transform="matrix(-1 0 0 1 202.49 292)" stroke="url(#paint1_linear_325137)" stroke-width="15" stroke-linecap="round"/>
<circle opacity="0.8" r="3.5" transform="matrix(-1 0 0 1 184.402 284.5)" fill="#C4C4C4"/>
<circle r="3.5" transform="matrix(-1 0 0 1 105.383 284.5)" fill="url(#paint2_linear_325137)"/>
<line opacity="0.37" x1="103.01" y1="314.5" x2="203.5" y2="314.5" stroke="url(#paint3_linear_325137)" stroke-width="15" stroke-linecap="round"/>
<circle opacity="0.8" cx="113.598" cy="314.5" r="3.5" fill="#C4C4C4"/>
<circle cx="192.617" cy="314.5" r="3.5" fill="url(#paint4_linear_325137)"/>
</g>
<defs>
<filter id="filter0_f_325137" x="-70.1006" y="223.899" width="164.201" height="164.201" filterUnits="userSpaceOnUse" color-interpolation-filters="sRGB">
<feFlood flood-opacity="0" result="BackgroundImageFix"/>
<feBlend mode="normal" in="SourceGraphic" in2="BackgroundImageFix" result="shape"/>
<feGaussianBlur stdDeviation="3.5503" result="effect1_foregroundBlur_325137"/>
</filter>
<linearGradient id="paint0_linear_325137" x1="300" y1="-156.5" x2="420.5" y2="612" gradientUnits="userSpaceOnUse">
<stop offset="0.0526715" stop-color="#C27EF5" stop-opacity="0.9"/>
<stop offset="0.496477" stop-color="#D6C2EC" stop-opacity="0.842187"/>
<stop offset="1" stop-color="#1766FF"/>
</linearGradient>
<linearGradient id="paint1_linear_325137" x1="32.2157" y1="38.5" x2="100.04" y2="45.9119" gradientUnits="userSpaceOnUse">
<stop stop-color="white"/>
<stop offset="1" stop-color="white" stop-opacity="0"/>
</linearGradient>
<linearGradient id="paint2_linear_325137" x1="-26" y1="7" x2="6.5" y2="7" gradientUnits="userSpaceOnUse">
<stop offset="0.671329" stop-color="white"/>
<stop offset="1" stop-color="white" stop-opacity="0"/>
</linearGradient>
<linearGradient id="paint3_linear_325137" x1="127.725" y1="360.5" x2="195.549" y2="367.912" gradientUnits="userSpaceOnUse">
<stop stop-color="white"/>
<stop offset="1" stop-color="white" stop-opacity="0"/>
</linearGradient>
<linearGradient id="paint4_linear_325137" x1="163.117" y1="318" x2="195.617" y2="318" gradientUnits="userSpaceOnUse">
<stop offset="0.671329" stop-color="white"/>
<stop offset="1" stop-color="white" stop-opacity="0"/>
</linearGradient>
<clipPath id="clip0_325137">
<rect width="600" height="600" rx="20" fill="white"/>
</clipPath>
<clipPath id="clip1_325137">
<rect width="59.4675" height="68.3432" fill="white" transform="translate(-17.7334 271.828)"/>
</clipPath>
</defs>
</svg>
