<svg width="600" height="600" viewBox="0 0 600 600" fill="none" xmlns="http://www.w3.org/2000/svg">
<g clip-path="url(#clip0_305021)">
<rect width="600" height="600" rx="20" fill="url(#paint0_linear_305021)" fill-opacity="0.87"/>
<rect opacity="0.8" x="-48" y="166" width="160" height="270" rx="16" fill="#13111A"/>
<circle cx="32" cy="416" r="11.75" fill="#545252" stroke="#AFAFAF" stroke-width="0.5"/>
<rect opacity="0.83" x="-35.8262" y="179.452" width="135.652" height="217.153" rx="8" fill="white"/>
<g opacity="0.5">
<path d="M81.1989 206.933C81.1989 212.973 76.2628 217.867 70.1717 217.867C64.0807 217.867 59.1445 212.973 59.1445 206.933C59.1445 200.894 64.0807 196 70.1717 196C76.2628 196 81.1989 200.894 81.1989 206.933Z" fill="#9C8B9A"/>
<path fill-rule="evenodd" clip-rule="evenodd" d="M12.84 210.101C13.8986 208.573 16.1737 208.573 17.2323 210.101L41.3699 244.911C41.6232 245.276 42.1595 245.295 42.4394 244.949L53.3885 231.379C54.4554 230.057 56.4839 230.057 57.5508 231.379L81.4111 260.951C82.8069 262.681 81.5647 265.245 79.3296 265.245H55.4692H-20.3296C-22.476 265.245 -23.7422 262.858 -22.5266 261.105L12.84 210.101Z" fill="#9C8B9A"/>
</g>
<line x1="-18" y1="283" x2="70" y2="283" stroke="#9C8B9A" stroke-width="10" stroke-linecap="round"/>
<line x1="-18" y1="299" x2="42" y2="299" stroke="#9C8B9A" stroke-width="10" stroke-linecap="round"/>
<line opacity="0.5" x1="-21" y1="327" x2="85" y2="327" stroke="#9C8B9A" stroke-width="10" stroke-linecap="round"/>
<line opacity="0.5" x1="-21" y1="342" x2="76" y2="342" stroke="#9C8B9A" stroke-width="10" stroke-linecap="round"/>
<g opacity="0.1" filter="url(#filter0_f_305021)">
<circle cx="284" cy="301" r="75" fill="white"/>
</g>
<circle opacity="0.12" cx="284.444" cy="301.444" r="66.568" fill="white"/>
<circle opacity="0.69" cx="284.444" cy="301.444" r="57.6923" fill="white"/>
<g clip-path="url(#clip1_305021)">
<path d="M302.654 311.802L283.944 322.595V311.802L293.299 306.396V295.604L302.654 290.198V311.802ZM255.879 284.802V317.198L265.225 311.802V290.198L283.944 279.254V268.479L255.879 284.802Z" fill="#31DDAB"/>
<path d="M312.976 284.802C312.984 284.623 312.942 284.446 312.856 284.29C312.77 284.133 312.643 284.003 312.488 283.914L284.432 267.76C284.299 267.685 284.149 267.645 283.997 267.645C283.844 267.645 283.695 267.685 283.562 267.76L255.408 283.959C255.253 284.048 255.126 284.178 255.04 284.334C254.954 284.491 254.912 284.668 254.92 284.846V317.243C254.919 317.398 254.959 317.551 255.035 317.686C255.116 317.816 255.225 317.925 255.355 318.006L283.411 334.195C283.557 334.282 283.725 334.328 283.895 334.328C284.065 334.328 284.232 334.282 284.378 334.195L312.426 318.006C312.566 317.921 312.682 317.802 312.763 317.66C312.838 317.527 312.878 317.377 312.878 317.225L312.976 284.802ZM283.943 280.524L300.701 290.198L293.299 294.476L284.423 289.355H284.316C284.255 289.325 284.189 289.304 284.121 289.293H283.943H283.757C283.692 289.304 283.629 289.325 283.571 289.355H283.455L274.58 294.476L267.177 290.198L283.943 280.524ZM283.943 310.701L275.574 305.882V296.163L283.943 291.325L292.322 296.163V305.882L283.943 310.701ZM284.92 312.388L293.796 307.266C293.796 307.266 293.849 307.213 293.884 307.186C293.939 307.147 293.989 307.102 294.035 307.053C294.073 307.006 294.106 306.956 294.133 306.902C294.166 306.853 294.193 306.799 294.213 306.743C294.221 306.675 294.221 306.606 294.213 306.539C294.218 306.5 294.218 306.461 294.213 306.423V296.163L301.615 291.885V311.207L284.858 320.882L284.92 312.388ZM256.864 285.361L282.976 270.272V278.82L264.754 289.355V289.399C264.717 289.423 264.681 289.45 264.648 289.479C264.614 289.504 264.584 289.534 264.559 289.568C264.53 289.602 264.503 289.638 264.479 289.675V289.719C264.479 289.719 264.479 289.719 264.479 289.772C264.479 289.825 264.479 289.843 264.479 289.888C264.475 289.932 264.475 289.976 264.479 290.021C264.479 290.021 264.479 290.021 264.479 290.083C264.479 290.145 264.479 290.083 264.479 290.145C264.479 290.207 264.479 290.145 264.479 290.198V311.207L257.068 315.485L256.864 285.361ZM283.943 332.269L257.84 317.181L265.242 312.902L283.464 323.42C283.6 323.486 283.748 323.526 283.899 323.536C284.048 323.527 284.193 323.487 284.325 323.42H284.378L302.654 312.92L310.056 317.198L283.943 332.269Z" fill="#621E95"/>
</g>
<line opacity="0.2" x1="7.5" y1="-7.5" x2="87.5" y2="-7.5" transform="matrix(-1 0 0 1 205 299)" stroke="url(#paint1_linear_305021)" stroke-width="15" stroke-linecap="round"/>
<circle opacity="0.8" r="3.5" transform="matrix(-1 0 0 1 189.5 291.5)" fill="#C4C4C4"/>
<circle r="3.5" transform="matrix(-1 0 0 1 124.5 291.5)" fill="url(#paint2_linear_305021)"/>
<line opacity="0.37" x1="124.5" y1="321.5" x2="204.5" y2="321.5" stroke="url(#paint3_linear_305021)" stroke-width="15" stroke-linecap="round"/>
<circle opacity="0.8" cx="132.5" cy="321.5" r="3.5" fill="#C4C4C4"/>
<circle cx="197.5" cy="321.5" r="3.5" fill="url(#paint4_linear_305021)"/>
<rect opacity="0.4" x="454" y="206" width="364" height="191" rx="8" fill="#302C3F"/>
<rect opacity="0.4" x="465" y="216" width="458" height="50" rx="4" fill="#302C3F"/>
<g opacity="0.8">
<rect x="470" y="226" width="35" height="30" rx="4" fill="#6A95BD"/>
<path d="M481.886 240.229H483.192C482.908 238.585 481.503 237.448 479.682 237.448C477.499 237.448 475.905 239.092 475.905 241.786C475.905 244.455 477.454 246.115 479.74 246.115C481.787 246.115 483.25 244.772 483.25 242.643V241.683H479.934V242.733H482.018C481.989 244.093 481.091 244.954 479.74 244.954C478.253 244.954 477.17 243.829 477.17 241.778C477.17 239.734 478.261 238.61 479.691 238.61C480.811 238.61 481.569 239.228 481.886 240.229ZM484.866 246H490.204V244.904H486.138V242.321H489.879V241.23H486.138V238.659H490.155V237.564H484.866V246ZM491.439 238.659H494.067V246H495.336V238.659H497.968V237.564H491.439V238.659Z" fill="white"/>
</g>
<g opacity="0.8">
<rect x="511" y="226" width="35" height="30" rx="4" fill="#92CB84"/>
<path d="M517.614 246H523.312V244.742H519.692V244.685L521.124 243.228C522.739 241.678 523.186 240.923 523.186 239.986C523.186 238.594 522.054 237.575 520.381 237.575C518.734 237.575 517.565 238.598 517.565 240.176H518.998C518.998 239.328 519.533 238.797 520.361 238.797C521.153 238.797 521.741 239.279 521.741 240.063C521.741 240.757 521.319 241.252 520.499 242.084L517.614 244.913V246ZM527.784 246.159C529.789 246.163 530.986 244.58 530.986 241.853C530.986 239.141 529.781 237.575 527.784 237.575C525.787 237.575 524.586 239.137 524.582 241.853C524.582 244.576 525.779 246.159 527.784 246.159ZM527.784 244.888C526.749 244.888 526.1 243.849 526.104 241.853C526.108 239.872 526.753 238.829 527.784 238.829C528.819 238.829 529.464 239.872 529.468 241.853C529.468 243.849 528.823 244.888 527.784 244.888ZM535.407 246.159C537.412 246.163 538.609 244.58 538.609 241.853C538.609 239.141 537.404 237.575 535.407 237.575C533.41 237.575 532.209 239.137 532.205 241.853C532.205 244.576 533.402 246.159 535.407 246.159ZM535.407 244.888C534.372 244.888 533.723 243.849 533.727 241.853C533.731 239.872 534.376 238.829 535.407 238.829C536.442 238.829 537.087 239.872 537.091 241.853C537.091 243.849 536.446 244.888 535.407 244.888Z" fill="white"/>
</g>
<rect x="561" y="244" width="238" height="10" rx="4" fill="#302C3F"/>
<rect x="561" y="226" width="311" height="10" rx="4" fill="#302C3F"/>
<rect opacity="0.4" x="465" y="276" width="458" height="50" rx="4" fill="#302C3F"/>
<g opacity="0.8">
<rect x="470" y="286" width="35" height="30" rx="4" fill="#6A95BD"/>
<path d="M481.886 300.229H483.192C482.908 298.585 481.503 297.448 479.682 297.448C477.499 297.448 475.905 299.092 475.905 301.786C475.905 304.455 477.454 306.115 479.74 306.115C481.787 306.115 483.25 304.772 483.25 302.643V301.683H479.934V302.733H482.018C481.989 304.093 481.091 304.954 479.74 304.954C478.253 304.954 477.17 303.829 477.17 301.778C477.17 299.734 478.261 298.61 479.691 298.61C480.811 298.61 481.569 299.228 481.886 300.229ZM484.866 306H490.204V304.904H486.138V302.321H489.879V301.23H486.138V298.659H490.155V297.564H484.866V306ZM491.439 298.659H494.067V306H495.336V298.659H497.968V297.564H491.439V298.659Z" fill="white"/>
</g>
<g opacity="0.8">
<rect x="511" y="286" width="35" height="30" rx="4" fill="#CB8484"/>
<path d="M517.463 304.458H521.429V306H522.865V304.458H523.929V303.22H522.865V297.689H520.99L517.463 303.261V304.458ZM521.445 303.22H519.006V303.155L521.38 299.393H521.445V303.22ZM528.297 306.159C530.302 306.163 531.5 304.58 531.5 301.853C531.5 299.141 530.294 297.575 528.297 297.575C526.301 297.575 525.099 299.137 525.095 301.853C525.095 304.576 526.293 306.159 528.297 306.159ZM528.297 304.888C527.263 304.888 526.613 303.849 526.617 301.853C526.621 299.872 527.267 298.829 528.297 298.829C529.332 298.829 529.978 299.872 529.982 301.853C529.982 303.849 529.336 304.888 528.297 304.888ZM536.229 297.689H534.796L532.73 299.016V300.396L534.674 299.154H534.723V306H536.229V297.689Z" fill="white"/>
</g>
<rect x="561" y="304" width="77" height="10" rx="4" fill="#302C3F"/>
<rect x="561" y="286" width="196" height="10" rx="4" fill="#302C3F"/>
<rect opacity="0.4" x="465" y="336" width="458" height="50" rx="4" fill="#302C3F"/>
<g opacity="0.8">
<rect x="470" y="346" width="35" height="30" rx="4" fill="#6A95BD"/>
</g>
<g opacity="0.8">
<rect x="511" y="346" width="35" height="30" rx="4" fill="#CB8484"/>
</g>
<rect x="561" y="364" width="238" height="10" rx="4" fill="#302C3F"/>
<rect x="561" y="346" width="155" height="10" rx="4" fill="#302C3F"/>
<line opacity="0.2" x1="7.5" y1="-7.5" x2="87.5" y2="-7.5" transform="matrix(-1 0 0 1 447 292)" stroke="url(#paint5_linear_305021)" stroke-width="15" stroke-linecap="round"/>
<circle opacity="0.8" r="3.5" transform="matrix(-1 0 0 1 431.5 284.5)" fill="#C4C4C4"/>
<circle r="3.5" transform="matrix(-1 0 0 1 366.5 284.5)" fill="url(#paint6_linear_305021)"/>
<line opacity="0.37" x1="366.5" y1="314.5" x2="446.5" y2="314.5" stroke="url(#paint7_linear_305021)" stroke-width="15" stroke-linecap="round"/>
<circle opacity="0.8" cx="374.5" cy="314.5" r="3.5" fill="#C4C4C4"/>
<circle cx="439.5" cy="314.5" r="3.5" fill="url(#paint8_linear_305021)"/>
</g>
<defs>
<filter id="filter0_f_305021" x="201.899" y="218.899" width="164.201" height="164.201" filterUnits="userSpaceOnUse" color-interpolation-filters="sRGB">
<feFlood flood-opacity="0" result="BackgroundImageFix"/>
<feBlend mode="normal" in="SourceGraphic" in2="BackgroundImageFix" result="shape"/>
<feGaussianBlur stdDeviation="3.5503" result="effect1_foregroundBlur_305021"/>
</filter>
<linearGradient id="paint0_linear_305021" x1="311.5" y1="414" x2="307.5" y2="610.5" gradientUnits="userSpaceOnUse">
<stop stop-color="#1766FF" stop-opacity="0.9"/>
<stop offset="1" stop-color="#C27EF5" stop-opacity="0.6"/>
</linearGradient>
<linearGradient id="paint1_linear_305021" x1="26.5" y1="38.5" x2="82.5044" y2="43.5344" gradientUnits="userSpaceOnUse">
<stop stop-color="white"/>
<stop offset="1" stop-color="white" stop-opacity="0"/>
</linearGradient>
<linearGradient id="paint2_linear_305021" x1="-26" y1="7" x2="6.5" y2="7" gradientUnits="userSpaceOnUse">
<stop offset="0.671329" stop-color="white"/>
<stop offset="1" stop-color="white" stop-opacity="0"/>
</linearGradient>
<linearGradient id="paint3_linear_305021" x1="143.5" y1="367.5" x2="199.504" y2="372.534" gradientUnits="userSpaceOnUse">
<stop stop-color="white"/>
<stop offset="1" stop-color="white" stop-opacity="0"/>
</linearGradient>
<linearGradient id="paint4_linear_305021" x1="168" y1="325" x2="200.5" y2="325" gradientUnits="userSpaceOnUse">
<stop offset="0.671329" stop-color="white"/>
<stop offset="1" stop-color="white" stop-opacity="0"/>
</linearGradient>
<linearGradient id="paint5_linear_305021" x1="26.5" y1="38.5" x2="82.5044" y2="43.5344" gradientUnits="userSpaceOnUse">
<stop stop-color="white"/>
<stop offset="1" stop-color="white" stop-opacity="0"/>
</linearGradient>
<linearGradient id="paint6_linear_305021" x1="-26" y1="7" x2="6.5" y2="7" gradientUnits="userSpaceOnUse">
<stop offset="0.671329" stop-color="white"/>
<stop offset="1" stop-color="white" stop-opacity="0"/>
</linearGradient>
<linearGradient id="paint7_linear_305021" x1="385.5" y1="360.5" x2="441.504" y2="365.534" gradientUnits="userSpaceOnUse">
<stop stop-color="white"/>
<stop offset="1" stop-color="white" stop-opacity="0"/>
</linearGradient>
<linearGradient id="paint8_linear_305021" x1="410" y1="318" x2="442.5" y2="318" gradientUnits="userSpaceOnUse">
<stop offset="0.671329" stop-color="white"/>
<stop offset="1" stop-color="white" stop-opacity="0"/>
</linearGradient>
<clipPath id="clip0_305021">
<rect width="600" height="600" rx="20" fill="white"/>
</clipPath>
<clipPath id="clip1_305021">
<rect width="59.4675" height="68.3432" fill="white" transform="translate(254.267 266.828)"/>
</clipPath>
</defs>
</svg>
